#define 5d09a8fb191e4042f6f4832f788da844mXzX0vCAr0Y91gzE_width 32
#define 5d09a8fb191e4042f6f4832f788da844mXzX0vCAr0Y91gzE_height 32
static char 5d09a8fb191e4042f6f4832f788da844mXzX0vCAr0Y91gzE_bits[] = {
  0x00, 0x00, 0x00, 0x00, 0x00, 0x00, 0x00, 0x00, 0x00, 0x00, 0x00, 0x00, 
  0x00, 0x00, 0x00, 0x00, 0x00, 0x00, 0x00, 0x00, 0x00, 0x00, 0x00, 0x00, 
  0x00, 0x00, 0x10, 0x00, 0x00, 0x00, 0x10, 0x00, 0x00, 0x00, 0x18, 0x00, 
  0x00, 0x00, 0x18, 0x00, 0x00, 0x3C, 0x06, 0x00, 0x80, 0x7E, 0x17, 0x00, 
  0x80, 0xFF, 0x5B, 0x00, 0x40, 0xFF, 0xDB, 0x00, 0xC0, 0xFE, 0xDB, 0x00, 
  0xC0, 0xFE, 0xDB, 0x0F, 0xA0, 0xFE, 0xDD, 0x01, 0x38, 0x0E, 0x5C, 0x01, 
  0x00, 0xF4, 0x9F, 0x00, 0x00, 0xF8, 0xBF, 0x00, 0x00, 0xF8, 0xAF, 0x00, 
  0x00, 0xF0, 0xC7, 0x00, 0x00, 0xE0, 0xC3, 0x00, 0x00, 0xC0, 0x41, 0x00, 
  0x00, 0x80, 0x40, 0x00, 0x00, 0x00, 0x40, 0x00, 0x00, 0x00, 0x00, 0x00, 
  0x00, 0x00, 0x00, 0x00, 0x00, 0x00, 0x00, 0x00, 0x00, 0x00, 0x00, 0x00, 
  0x00, 0x00, 0x00, 0x00, 0x00, 0x00, 0x00, 0x00, };
