#define 5a8075bac772470a965748e31b3c9642j3acXwkuhN4ovgF7_width 32
#define 5a8075bac772470a965748e31b3c9642j3acXwkuhN4ovgF7_height 32
static char 5a8075bac772470a965748e31b3c9642j3acXwkuhN4ovgF7_bits[] = {
  0x00, 0x00, 0x00, 0x00, 0x00, 0x00, 0x00, 0x00, 0x00, 0x00, 0x00, 0x00, 
  0x00, 0x00, 0x00, 0x00, 0x00, 0x00, 0x00, 0x00, 0x00, 0x00, 0x00, 0x00, 
  0x20, 0x09, 0xC8, 0x04, 0x90, 0x64, 0x06, 0x02, 0x20, 0xC9, 0x60, 0x06, 
  0x60, 0x12, 0x83, 0x01, 0x00, 0x7D, 0x06, 0x0C, 0x58, 0x7E, 0x57, 0x02, 
  0x20, 0xFF, 0x5B, 0x02, 0x08, 0xFF, 0xDB, 0x0C, 0x90, 0xFE, 0xDB, 0x01, 
  0xA0, 0xFE, 0xDB, 0x00, 0x80, 0xFE, 0xDD, 0x04, 0x40, 0x0E, 0x5C, 0x08, 
  0xA0, 0xF4, 0x1F, 0x03, 0x88, 0xF8, 0x1F, 0x04, 0x20, 0xF8, 0x0F, 0x09, 
  0x90, 0xF5, 0x1F, 0x04, 0x90, 0xF9, 0x03, 0x05, 0x28, 0xC2, 0x15, 0x01, 
  0x20, 0xC9, 0x26, 0x04, 0x90, 0x24, 0x01, 0x02, 0x00, 0x00, 0x00, 0x00, 
  0x00, 0x00, 0x00, 0x00, 0x00, 0x00, 0x00, 0x00, 0x00, 0x00, 0x00, 0x00, 
  0x00, 0x00, 0x00, 0x00, 0x00, 0x00, 0x00, 0x00, };
